<svg width="27" height="26" viewBox="0 0 27 26" fill="none" xmlns="http://www.w3.org/2000/svg">
<path d="M12.2486 8.68958C12.2486 8.51882 12.2824 8.34976 12.3481 8.19214C12.4138 8.03451 12.51 7.89144 12.6312 7.77117C12.7524 7.6509 12.8962 7.55581 13.0544 7.49139C13.2125 7.42696 13.3818 7.39446 13.5526 7.39577C15.9614 7.41518 19.1642 7.43434 21.573 7.45375C21.8548 7.58778 22.1094 7.77291 22.3237 7.99974C23.3985 9.14802 23.0044 11.0196 22.8355 11.8215C22.4445 13.678 21.3559 14.9262 20.7199 15.5406C21.0645 16.4134 21.2717 17.3344 21.3341 18.2706C21.3812 18.9903 21.6152 22.5768 19.2185 24.4127C18.9189 24.6439 17.874 25.42 16.4555 25.3681C15.3397 25.3274 14.5558 24.7947 13.8623 24.3103C12.9331 23.6613 11.8552 22.6464 10.7913 20.7615C10.4396 20.1386 9.21102 17.8641 8.74386 14.4147C8.56169 13.0738 8.18064 10.0103 9.32381 6.39595C9.93312 4.46955 10.4786 2.74496 12.1901 1.44776C12.5154 1.20253 14.2562 -0.0706596 16.6263 0.00307815C17.7377 0.0375214 18.6296 0.356971 19.1489 0.543013C19.9782 0.840716 20.7641 1.24785 21.4857 1.75362C21.5491 1.79796 21.6215 1.82775 21.6977 1.84088C21.7739 1.854 21.8521 1.85013 21.9267 1.82954L26.4104 0.592495C26.4324 0.586589 26.4558 0.588208 26.4768 0.597096C26.4979 0.605983 26.5153 0.621632 26.5265 0.641565C26.5376 0.661497 26.5418 0.684574 26.5383 0.707143C26.5349 0.729712 26.524 0.750483 26.5074 0.766167C25.8529 1.37456 25.1606 1.94101 24.4347 2.46214C23.7496 2.95382 23.0358 3.40424 22.2971 3.811C22.1158 3.91131 21.9075 3.95161 21.7019 3.92612C21.4963 3.90062 21.3041 3.81065 21.1529 3.66911C20.803 3.3394 20.4091 3.05967 19.9826 2.83786C18.47 2.05318 17.0306 2.26178 16.5196 2.34328C16.0172 2.42333 14.4093 2.67971 13.2785 3.99777C12.8419 4.50715 12.5855 5.04684 12.2333 6.22931C11.7887 7.7242 11.3856 9.11576 11.2553 11.3699C11.1512 13.1704 11.021 15.422 11.8923 18.1256C12.5033 20.0217 13.3287 21.2759 14.3715 22.1278C15.4411 23.0027 16.1926 23.008 16.4642 22.9923C17.221 22.9479 17.7445 22.5314 17.8745 22.4235C18.0045 22.3155 18.4751 21.8957 18.8297 20.5356C18.997 19.8938 19.1797 18.8863 19.08 17.6007L14.0066 17.5854C13.6685 17.5841 13.3446 17.4488 13.106 17.2092C12.8674 16.9695 12.7335 16.6451 12.7337 16.3069C12.7337 15.9766 12.8616 15.6591 13.0907 15.4211C13.3197 15.1831 13.632 15.043 13.962 15.0303L17.4422 14.8957C18.172 14.5985 18.8198 14.1305 19.3313 13.531C20.5351 12.1084 20.5116 10.445 20.4914 10.0055C18.4389 9.99794 15.5918 9.99066 13.54 9.98339C13.1972 9.98274 12.8688 9.84615 12.6267 9.60358C12.3846 9.36102 12.2486 9.0323 12.2486 8.68958Z" fill="#A5A6B1"/>
<path d="M12.6642 25.4057C11.9671 25.425 11.2698 25.3736 10.5831 25.2522C9.89421 25.1309 8.55699 24.8796 7.12007 23.9557C6.79431 23.7462 5.74185 23.0381 4.78302 21.738C3.74608 20.3312 3.38564 19.0022 3.21367 18.3422C2.77439 16.6584 2.86147 15.3054 2.9585 13.8056C3.02699 12.7384 3.17529 11.6778 3.40213 10.6327C2.47095 10.3269 1.91113 9.82039 1.64504 9.54121C0.54795 8.38978 0.213947 6.69818 0.638667 5.36193C1.07527 3.97934 2.39067 2.99892 3.84553 2.88783C4.23363 2.85824 5.08889 2.80536 5.92668 3.33147C6.82051 3.89251 7.13681 4.76111 7.27434 5.1395C7.59209 6.01271 7.5169 6.74936 7.42788 7.59613C7.39101 7.9539 7.30927 8.53289 6.83094 10.0867C6.35262 11.6405 6.21872 11.7589 5.92668 12.7306C5.65259 13.6409 5.27929 14.9173 5.26086 16.5521C5.25164 17.3589 5.24946 18.6199 5.8236 20.1005C6.29198 21.3077 6.91972 22.0839 7.08611 22.2835C7.88049 23.2387 8.71392 23.7503 9.16726 24.0234C9.99196 24.5199 10.74 24.7848 11.385 25.0128C11.9004 25.1957 12.3424 25.323 12.6642 25.4057ZM4.66368 4.86686C4.20282 4.47659 3.60031 4.57191 3.57217 4.57579C2.76081 4.7172 2.40789 5.64475 2.36107 5.78689C1.95843 7.022 2.53378 8.65369 3.11131 9.13153C3.23598 9.23461 3.64857 9.57614 4.03303 9.45583C4.34423 9.3588 4.60037 8.91759 4.74397 8.5261C5.20822 7.25825 5.50536 5.58096 4.66368 4.86686Z" fill="#A5A6B1"/>
</svg>
