<svg width="24" height="24" viewBox="0 0 24 24" fill="none" xmlns="http://www.w3.org/2000/svg">
<path fill-rule="evenodd" clip-rule="evenodd" d="M0.0737305 11.5296C0.0737305 5.16196 5.23569 0 11.6033 0C17.9708 0 23.1329 5.16196 23.1329 11.5296C23.1329 17.8971 17.9708 23.0591 11.6033 23.0591C9.61239 23.0591 7.73726 22.5538 6.10146 21.6641L1.56161 22.5093C1.30093 22.5578 1.03308 22.4748 0.845588 22.2873C0.658095 22.0998 0.575045 21.8319 0.623579 21.5712L1.46882 17.0314C0.579023 15.3956 0.0737305 13.5205 0.0737305 11.5296ZM11.6033 1.60878C6.12419 1.60878 1.68251 6.05046 1.68251 11.5296C1.68251 13.3379 2.1656 15.0309 3.00924 16.4894C3.10537 16.6556 3.13889 16.8506 3.10375 17.0394L2.41977 20.7131L6.09348 20.0291C6.28221 19.994 6.47729 20.0275 6.64347 20.1236C8.10188 20.9672 9.795 21.4504 11.6033 21.4504C17.0823 21.4504 21.5241 17.0086 21.5241 11.5296C21.5241 6.05046 17.0823 1.60878 11.6033 1.60878ZM4.90006 11.5296C4.90006 10.7892 5.50025 10.1889 6.24071 10.1889C6.98117 10.1889 7.58136 10.7892 7.58136 11.5296C7.58136 12.2699 6.98117 12.8702 6.24071 12.8702C5.50025 12.8702 4.90006 12.2699 4.90006 11.5296ZM6.24071 11.7977C6.38884 11.7977 6.50884 11.6776 6.50884 11.5296C6.50884 11.3815 6.38884 11.2614 6.24071 11.2614C6.09258 11.2614 5.97258 11.3815 5.97258 11.5296C5.97258 11.6776 6.09258 11.7977 6.24071 11.7977ZM10.2626 11.5296C10.2626 10.7892 10.8629 10.1889 11.6033 10.1889C12.3437 10.1889 12.9439 10.7892 12.9439 11.5296C12.9439 12.2699 12.3437 12.8702 11.6033 12.8702C10.8629 12.8702 10.2626 12.2699 10.2626 11.5296ZM11.6033 11.7977C11.7514 11.7977 11.8714 11.6777 11.8714 11.5296C11.8714 11.3814 11.7514 11.2614 11.6033 11.2614C11.4552 11.2614 11.3352 11.3814 11.3352 11.5296C11.3352 11.6777 11.4552 11.7977 11.6033 11.7977ZM15.6252 11.5296C15.6252 10.7892 16.2255 10.1889 16.9659 10.1889C17.7062 10.1889 18.3065 10.7892 18.3065 11.5296C18.3065 12.2699 17.7062 12.8702 16.9659 12.8702C16.2255 12.8702 15.6252 12.2699 15.6252 11.5296ZM16.9659 11.7977C17.114 11.7977 17.234 11.6777 17.234 11.5296C17.234 11.3814 17.114 11.2614 16.9659 11.2614C16.8177 11.2614 16.6977 11.3814 16.6977 11.5296C16.6977 11.6777 16.8177 11.7977 16.9659 11.7977Z" fill="#A5A6B1"/>
</svg>
