<svg width="25" height="25" viewBox="0 0 25 25" fill="none" xmlns="http://www.w3.org/2000/svg">
<path d="M24.0594 10.4657C24.0588 10.4651 24.0583 10.4646 24.0577 10.464L14.2415 0.649125C13.8231 0.230572 13.2668 0 12.675 0C12.0833 0 11.527 0.230388 11.1084 0.648942L1.2973 10.4589C1.29399 10.4622 1.29069 10.4657 1.28738 10.469C0.42816 11.3331 0.429629 12.735 1.29161 13.5969C1.68542 13.9909 2.20554 14.2191 2.76165 14.2429C2.78423 14.2451 2.807 14.2462 2.82995 14.2462H3.22119V21.4694C3.22119 22.8987 4.38426 24.0617 5.8141 24.0617H9.65454C10.0438 24.0617 10.3595 23.7461 10.3595 23.3568V17.6938C10.3595 17.0416 10.8901 16.511 11.5424 16.511H13.8076C14.4599 16.511 14.9905 17.0416 14.9905 17.6938V23.3568C14.9905 23.7461 15.3061 24.0617 15.6955 24.0617H19.536C20.9658 24.0617 22.1289 22.8987 22.1289 21.4694V14.2462H22.4917C23.0832 14.2462 23.6395 14.0159 24.0583 13.5973C24.9212 12.7339 24.9216 11.3296 24.0594 10.4657Z" fill="#A5A6B1"/>
</svg>
