<svg width="25" height="25" viewBox="0 0 25 25" fill="none" xmlns="http://www.w3.org/2000/svg">
<path d="M16.2933 21.6551L16.2808 22.4537C16.9696 22.1587 17.6251 21.8 18.2388 21.3846C18.1725 20.3809 18.5852 19.269 19.4465 18.4076C20.1705 17.6836 21.0958 17.2535 22.0101 17.2016C22.1943 16.8576 22.3616 16.5041 22.5107 16.141V13.9131L16.2933 15.5798V21.2448L16.2942 21.2611L16.2933 21.2877V21.6551H16.2933Z" fill="#A5A6B1"/>
<path d="M23.1619 9.38939C22.0875 4.04132 17.3553 0 11.6954 0C5.24646 0 0 5.24657 0 11.6955C0 17.4515 4.18062 22.2463 9.66471 23.2108C9.48527 22.1353 9.88963 20.8844 10.8374 19.9363C11.6106 19.1629 12.6125 18.72 13.5862 18.72C13.6921 18.72 13.7969 18.7251 13.899 18.7353V15.5914C13.2478 15.9612 12.4965 16.1755 11.695 16.1755C9.2251 16.1755 7.21535 14.1655 7.21535 11.6955C7.21535 9.22549 9.22504 7.21574 11.695 7.21574C14.0212 7.21574 15.9371 8.99796 16.1532 11.2679L23.1619 9.38939ZM8.08697 7.53998L5.2539 2.89559C5.2539 2.89559 7.2279 1.14845 9.60969 1.14845L10.4842 6.29009C10.4843 6.28965 8.80786 6.36843 8.08697 7.53998ZM11.3544 6.41601L10.574 0.926702L11.4371 0.804333L12.2177 6.29342L11.3544 6.41601Z" fill="#A5A6B1"/>
<path d="M11.6953 8.52344C9.9462 8.52344 8.52319 9.94639 8.52319 11.6956C8.52319 13.4446 9.94614 14.8679 11.6953 14.8679C12.5513 14.8679 13.328 14.5257 13.8999 13.9724V12.5201V12.2868V11.6485H13.982H14.7331L14.8644 11.6132C14.8196 9.90236 13.417 8.52344 11.6953 8.52344ZM11.6953 12.6792C11.1531 12.6792 10.7122 12.2378 10.7122 11.6956C10.7122 11.1534 11.1531 10.7119 11.6953 10.7119C12.2377 10.7119 12.6786 11.1534 12.6786 11.6956C12.6786 12.2378 12.2377 12.6792 11.6953 12.6792Z" fill="#A5A6B1"/>
<path d="M24.0301 19.7797H24.0335V15.7924V12.6027V12.5201V12.1424V11.248V10.0581L23.9369 10.084L23.2993 10.255L16.1498 12.1715L15.4612 12.3566L14.8473 12.5209H14.7707V12.5413V13.9651V14.9445V15.0851V19.98C14.443 19.7191 14.0292 19.5913 13.5857 19.5913C12.8735 19.5913 12.0851 19.9204 11.453 20.5521C10.6201 21.3854 10.3117 22.4912 10.5874 23.3366C10.6702 23.5912 10.8012 23.8243 10.9929 24.0168C10.9959 24.0193 10.9993 24.021 11.0024 24.0239C11.3445 24.3614 11.807 24.5259 12.3082 24.5259C12.9316 24.5259 13.6137 24.2729 14.1991 23.7898C14.2873 23.7171 14.374 23.6397 14.457 23.5563C14.6528 23.3604 14.8082 23.1469 14.9447 22.927C15.2015 22.5159 15.3637 22.0784 15.4076 21.6543H15.4211V21.2846C15.4207 21.2772 15.4215 21.2701 15.4211 21.2628V14.9109L23.3377 12.7891L23.3823 12.7771V15.6834V17.3895V18.4534C23.2496 18.348 23.1002 18.2693 22.9431 18.2067C22.7346 18.1238 22.5099 18.0772 22.2732 18.0688C22.2466 18.0679 22.2213 18.0629 22.1944 18.0629C21.9412 18.0629 21.6782 18.1067 21.4168 18.1888C20.9413 18.337 20.4694 18.6166 20.0616 19.024C19.5631 19.5228 19.2597 20.12 19.1482 20.7005C19.0919 20.9938 19.0886 21.279 19.1371 21.5489C19.1778 21.7769 19.2499 21.9923 19.3678 22.1839C19.4346 22.2921 19.5091 22.3964 19.6019 22.4883C19.9445 22.8314 20.4111 22.9978 20.9171 22.9978C21.634 22.9978 22.4303 22.6636 23.0657 22.0282C23.7322 21.3632 24.0628 20.5227 24.0301 19.7797Z" fill="#A5A6B1"/>
</svg>
