<svg width="24" height="24" viewBox="0 0 24 24" fill="none" xmlns="http://www.w3.org/2000/svg">
<path fill-rule="evenodd" clip-rule="evenodd" d="M21 1C21.5523 1 22 1.44772 22 2V8C22 8.55228 21.5523 9 21 9H15C14.4477 9 14 8.55228 14 8C14 7.44772 14.4477 7 15 7H20V2C20 1.44772 20.4477 1 21 1Z" fill="#444444"/>
<path fill-rule="evenodd" clip-rule="evenodd" d="M13.2337 4.104C11.7084 3.86595 10.1468 4.07427 8.73734 4.70385C7.32784 5.33343 6.13059 6.35737 5.29 7.65216C4.44942 8.94695 4.00141 10.4573 4 12.001C3.9995 12.5533 3.55137 13.0006 2.99909 13.0001C2.4468 12.9996 1.9995 12.5515 2 11.9992C2.00176 10.0695 2.56178 8.18162 3.61251 6.56313C4.66324 4.94463 6.1598 3.66471 7.92168 2.87774C9.68356 2.09076 11.6355 1.83036 13.5421 2.12792C15.4486 2.42549 17.2284 3.26832 18.6667 4.55475L18.669 4.55681L21.669 7.25681C22.0795 7.62627 22.1128 8.25856 21.7433 8.66907C21.3738 9.07958 20.7415 9.11286 20.331 8.7434L17.3333 6.04546C17.333 6.04514 17.3326 6.04481 17.3322 6.04448C16.1818 5.01589 14.7584 4.34197 13.2337 4.104Z" fill="#444444"/>
<path fill-rule="evenodd" clip-rule="evenodd" d="M2 16C2 15.4477 2.44772 15 3 15H9C9.55228 15 10 15.4477 10 16C10 16.5523 9.55228 17 9 17H4V22C4 22.5523 3.55228 23 3 23C2.44772 23 2 22.5523 2 22V16Z" fill="#444444"/>
<path fill-rule="evenodd" clip-rule="evenodd" d="M21.0009 11C21.5532 11.0005 22.0005 11.4486 22 12.0009C21.9983 13.9306 21.4382 15.8185 20.3875 17.437C19.3368 19.0555 17.8402 20.3354 16.0783 21.1224C14.3165 21.9093 12.3645 22.1698 10.4579 21.8722C8.55137 21.5746 6.77162 20.7318 5.33334 19.4454L5.33104 19.4433L5.33104 19.4433L2.33104 16.7433C1.92053 16.3738 1.88726 15.7415 2.25671 15.331C2.62617 14.9205 3.25846 14.8872 3.66897 15.2567L6.66668 17.9546C6.66705 17.955 6.66743 17.9553 6.66781 17.9557C7.81823 18.9842 9.2416 19.6581 10.7664 19.8961C12.2916 20.1342 13.8532 19.9258 15.2627 19.2963C16.6722 18.6667 17.8694 17.6427 18.71 16.3479C19.5506 15.0532 19.9986 13.5428 20 11.9991C20.0005 11.4468 20.4486 10.9995 21.0009 11Z" fill="#444444"/>
</svg>
