<svg width="21" height="21" viewBox="0 0 21 21" fill="none" xmlns="http://www.w3.org/2000/svg">
<path d="M6.7058 8.00409C6.89316 8.19034 7.14661 8.29488 7.4108 8.29488C7.67498 8.29488 7.92844 8.19034 8.1158 8.00409C8.30205 7.81673 8.40659 7.56328 8.40659 7.29909C8.40659 7.03491 8.30205 6.78145 8.1158 6.59409L1.8458 0.294092C1.65749 0.105788 1.4021 0 1.1358 0C0.869497 0 0.614102 0.105788 0.425798 0.294092C0.237495 0.482395 0.131707 0.73779 0.131707 1.00409C0.131707 1.27039 0.237495 1.52579 0.425798 1.71409L6.7058 8.00409ZM19.0058 12.0041C18.7406 12.0041 18.4862 12.1094 18.2987 12.297C18.1112 12.4845 18.0058 12.7389 18.0058 13.0041V16.5941L13.4458 12.0041C13.2548 11.8131 12.9959 11.7059 12.7258 11.7059C12.4557 11.7059 12.1968 11.8131 12.0058 12.0041C11.8148 12.195 11.7076 12.454 11.7076 12.7241C11.7076 12.9941 11.8148 13.2531 12.0058 13.4441L16.5958 18.0041H13.0058C12.7406 18.0041 12.4862 18.1094 12.2987 18.297C12.1112 18.4845 12.0058 18.7389 12.0058 19.0041C12.0058 19.2693 12.1112 19.5237 12.2987 19.7112C12.4862 19.8987 12.7406 20.0041 13.0058 20.0041H19.0058C19.1365 20.0025 19.2656 19.9753 19.3858 19.9241C19.6301 19.8226 19.8243 19.6284 19.9258 19.3841C19.977 19.2639 20.0042 19.1348 20.0058 19.0041V13.0041C20.0058 12.7389 19.9004 12.4845 19.7129 12.297C19.5254 12.1094 19.271 12.0041 19.0058 12.0041ZM19.9258 0.624092C19.8243 0.379742 19.6301 0.185566 19.3858 0.0840915C19.2656 0.0328506 19.1365 0.00567161 19.0058 0.00409162H13.0058C12.7406 0.00409162 12.4862 0.109448 12.2987 0.296985C12.1112 0.484521 12.0058 0.738875 12.0058 1.00409C12.0058 1.26931 12.1112 1.52366 12.2987 1.7112C12.4862 1.89873 12.7406 2.00409 13.0058 2.00409H16.5958L0.295798 18.2941C0.20207 18.3871 0.127676 18.4977 0.0769069 18.6195C0.0261382 18.7414 0 18.8721 0 19.0041C0 19.1361 0.0261382 19.2668 0.0769069 19.3887C0.127676 19.5105 0.20207 19.6211 0.295798 19.7141C0.388761 19.8078 0.499363 19.8822 0.621222 19.933C0.743081 19.9838 0.873786 20.0099 1.0058 20.0099C1.13781 20.0099 1.26852 19.9838 1.39037 19.933C1.51223 19.8822 1.62284 19.8078 1.7158 19.7141L18.0058 3.41409V7.00409C18.0058 7.26931 18.1112 7.52366 18.2987 7.7112C18.4862 7.89873 18.7406 8.00409 19.0058 8.00409C19.271 8.00409 19.5254 7.89873 19.7129 7.7112C19.9004 7.52366 20.0058 7.26931 20.0058 7.00409V1.00409C20.0042 0.873414 19.977 0.744314 19.9258 0.624092Z" fill="#444444"/>
</svg>
