<svg width="83" height="68" viewBox="0 0 83 68" fill="none" xmlns="http://www.w3.org/2000/svg">
<path d="M80.2156 9.0779L74.3974 9.07762V3.0549C74.3974 1.67602 73.3886 0.50451 72.0248 0.300501C71.7867 0.26473 66.1186 -0.558571 59.2933 0.683366C51.6843 2.06783 45.616 5.48204 41.5004 10.6435C37.3844 5.48204 31.3161 2.06783 23.7075 0.683366C16.8818 -0.558291 11.2138 0.26473 10.9759 0.300501C9.61215 0.504789 8.60329 1.6763 8.60329 3.0549V9.07762H2.78514C1.24725 9.07762 0 10.3249 0 11.863V64.3477C0 65.2496 0.436522 66.0955 1.17179 66.6181C1.90706 67.1407 2.84969 67.2748 3.70122 66.978C3.91026 66.9057 24.7814 59.7827 40.3445 66.8816C41.0789 67.2167 41.9221 67.2167 42.6565 66.8816C58.176 59.8028 79.0919 66.9062 79.2998 66.978C79.5982 67.082 79.9073 67.1331 80.2153 67.1331C80.7862 67.1331 81.3513 66.9576 81.8292 66.6184C82.5645 66.0958 83.001 65.2498 83.001 64.348V11.8633C83.0007 10.3251 81.7538 9.0779 80.2156 9.0779ZM5.57055 60.6211V14.6482H8.60329V51.7403C8.60329 52.5496 8.95737 53.3181 9.56968 53.8472C10.182 54.3762 10.9963 54.6134 11.7967 54.4952C11.9504 54.4729 24.0501 52.8117 32.8901 58.8769C22.0008 57.0149 11.1023 59.1687 5.57055 60.6211ZM38.7152 56.3651C34.8217 52.8472 29.7503 50.4684 23.7075 49.369C20.7994 48.8397 18.1014 48.6855 15.944 48.6855C15.3034 48.6855 14.7104 48.6991 14.1741 48.7207V5.61255H14.1738C19.527 5.37109 32.5491 5.94343 38.7152 16.3962V56.3651ZM44.2855 16.3965C50.4295 5.98843 63.4721 5.39009 68.8269 5.61953V48.7207C66.4841 48.6262 63.0643 48.6827 59.2933 49.369C53.2504 50.4684 48.179 52.8469 44.2855 56.3651V16.3965ZM50.1014 58.8786C58.9425 52.8098 71.0486 54.4726 71.1995 54.4949C72.0019 54.6154 72.8157 54.3795 73.4299 53.8508C74.0442 53.3215 74.3974 52.5513 74.3974 51.7403V14.6484H77.4302V60.6211C71.8968 59.1681 60.9938 57.0135 50.1014 58.8786Z" fill="#127928"/>
<path d="M56.8001 28.4467C56.8001 28.3192 56.8253 28.193 56.8743 28.0754C56.9234 27.9577 56.9952 27.8509 57.0857 27.7612C57.1761 27.6714 57.2835 27.6004 57.4015 27.5523C57.5196 27.5042 57.646 27.48 57.7734 27.481C59.5715 27.4954 61.9621 27.5097 63.7602 27.5242C63.9706 27.6243 64.1606 27.7625 64.3206 27.9318C65.1228 28.7889 64.8286 30.1859 64.7026 30.7845C64.4107 32.1703 63.5981 33.102 63.1234 33.5606C63.3806 34.2121 63.5353 34.8995 63.5818 35.5984C63.617 36.1356 63.7917 38.8127 62.0027 40.1831C61.7791 40.3556 60.9991 40.935 59.9403 40.8962C59.1074 40.8658 58.5223 40.4682 58.0046 40.1067C57.311 39.6222 56.5064 38.8646 55.7123 37.4576C55.4497 36.9927 54.5327 35.2949 54.184 32.7202C54.048 31.7193 53.7636 29.4325 54.6169 26.7346C55.0717 25.2967 55.4789 24.0094 56.7564 23.0411C56.9992 22.8581 58.2987 21.9077 60.0677 21.9627C60.8973 21.9885 61.5631 22.2269 61.9507 22.3658C62.5698 22.588 63.1564 22.8919 63.695 23.2694C63.7423 23.3025 63.7964 23.3248 63.8533 23.3346C63.9102 23.3443 63.9685 23.3415 64.0242 23.3261L67.371 22.4027C67.3874 22.3983 67.4049 22.3995 67.4206 22.4061C67.4363 22.4128 67.4493 22.4245 67.4576 22.4393C67.466 22.4542 67.4691 22.4714 67.4665 22.4883C67.4639 22.5051 67.4558 22.5206 67.4434 22.5323C66.9549 22.9865 66.4381 23.4093 65.8963 23.7983C65.3849 24.1653 64.852 24.5015 64.3006 24.8051C64.1654 24.88 64.0098 24.9101 63.8564 24.8911C63.703 24.872 63.5595 24.8049 63.4466 24.6992C63.1854 24.4531 62.8914 24.2443 62.573 24.0787C61.4439 23.493 60.3696 23.6487 59.9881 23.7096C59.6131 23.7693 58.4129 23.9607 57.5688 24.9445C57.2429 25.3248 57.0515 25.7276 56.7887 26.6103C56.4568 27.7261 56.1559 28.7648 56.0586 30.4474C55.981 31.7913 55.8837 33.4721 56.5341 35.4901C56.9902 36.9054 57.6063 37.8417 58.3847 38.4775C59.1831 39.1306 59.744 39.1346 59.9468 39.1228C60.5117 39.0897 60.9024 38.7788 60.9995 38.6982C61.0965 38.6177 61.4478 38.3043 61.7125 37.2891C61.8374 36.81 61.9737 36.0579 61.8993 35.0983L58.1123 35.0869C57.8599 35.0859 57.6182 34.985 57.4401 34.8061C57.262 34.6272 57.162 34.385 57.1622 34.1326C57.1622 33.886 57.2577 33.649 57.4286 33.4714C57.5996 33.2937 57.8327 33.1892 58.079 33.1797L60.6768 33.0792C61.2216 32.8573 61.7051 32.508 62.0869 32.0606C62.9855 30.9987 62.9679 29.757 62.9529 29.4289C61.4208 29.4233 59.2955 29.4179 57.764 29.4125C57.5082 29.412 57.263 29.31 57.0823 29.1289C56.9016 28.9479 56.8001 28.7025 56.8001 28.4467Z" fill="#127928"/>
<path d="M57.1104 40.9243C56.59 40.9387 56.0695 40.9003 55.5569 40.8097C55.0427 40.7192 54.0446 40.5316 52.972 39.8419C52.7288 39.6855 51.9432 39.157 51.2275 38.1866C50.4535 37.1364 50.1845 36.1444 50.0561 35.6518C49.7282 34.3949 49.7932 33.385 49.8656 32.2655C49.9167 31.4689 50.0274 30.6772 50.1968 29.8971C49.5017 29.6688 49.0838 29.2908 48.8852 29.0824C48.0663 28.2229 47.817 26.9602 48.134 25.9628C48.4599 24.9308 49.4418 24.1989 50.5277 24.116C50.8174 24.0939 51.4558 24.0545 52.0812 24.4472C52.7484 24.866 52.9845 25.5143 53.0871 25.7968C53.3243 26.4486 53.2682 26.9984 53.2017 27.6305C53.1742 27.8975 53.1132 28.3297 52.7562 29.4896C52.3991 30.6494 52.2992 30.7378 52.0812 31.4631C51.8766 32.1426 51.598 33.0953 51.5842 34.3156C51.5773 34.9178 51.5757 35.8591 52.0042 36.9643C52.3539 37.8654 52.8224 38.4447 52.9466 38.5938C53.5396 39.3067 54.1617 39.6886 54.5001 39.8925C55.1157 40.2631 55.6741 40.4608 56.1555 40.631C56.5402 40.7675 56.8701 40.8626 57.1104 40.9243ZM51.1384 25.5933C50.7944 25.3019 50.3447 25.3731 50.3237 25.376C49.7181 25.4815 49.4546 26.1739 49.4197 26.28C49.1191 27.2019 49.5486 28.4199 49.9797 28.7766C50.0727 28.8535 50.3807 29.1084 50.6677 29.0186C50.9 28.9462 51.0912 28.6169 51.1984 28.3247C51.5449 27.3783 51.7667 26.1263 51.1384 25.5933Z" fill="#127928"/>
<path d="M25.8001 28.6342C25.8001 28.5067 25.8253 28.3805 25.8743 28.2629C25.9234 28.1452 25.9952 28.0384 26.0857 27.9487C26.1761 27.8589 26.2835 27.7879 26.4015 27.7398C26.5196 27.6917 26.646 27.6675 26.7734 27.6685C28.5715 27.6829 30.9621 27.6972 32.7602 27.7117C32.9706 27.8118 33.1606 27.95 33.3206 28.1193C34.1228 28.9764 33.8286 30.3734 33.7026 30.972C33.4107 32.3578 32.5981 33.2895 32.1234 33.7481C32.3806 34.3996 32.5353 35.087 32.5818 35.7859C32.617 36.3231 32.7917 39.0002 31.0027 40.3706C30.7791 40.5431 29.9991 41.1225 28.9403 41.0837C28.1074 41.0533 27.5223 40.6557 27.0046 40.2942C26.311 39.8097 25.5064 39.0521 24.7123 37.6451C24.4497 37.1802 23.5327 35.4824 23.184 32.9077C23.048 31.9068 22.7636 29.62 23.6169 26.9221C24.0717 25.4842 24.4789 24.1969 25.7564 23.2286C25.9992 23.0456 27.2987 22.0952 29.0677 22.1502C29.8973 22.176 30.5631 22.4144 30.9507 22.5533C31.5698 22.7755 32.1564 23.0794 32.695 23.4569C32.7423 23.49 32.7964 23.5123 32.8533 23.5221C32.9102 23.5318 32.9685 23.529 33.0242 23.5136L36.371 22.5902C36.3874 22.5858 36.4049 22.587 36.4206 22.5936C36.4363 22.6003 36.4493 22.612 36.4576 22.6268C36.466 22.6417 36.4691 22.6589 36.4665 22.6758C36.4639 22.6926 36.4558 22.7081 36.4434 22.7198C35.9549 23.174 35.4381 23.5968 34.8963 23.9858C34.3849 24.3528 33.852 24.689 33.3006 24.9926C33.1654 25.0675 33.0098 25.0976 32.8564 25.0786C32.703 25.0595 32.5595 24.9924 32.4466 24.8867C32.1854 24.6406 31.8914 24.4318 31.573 24.2662C30.4439 23.6805 29.3696 23.8362 28.9881 23.8971C28.6131 23.9568 27.4129 24.1482 26.5688 25.132C26.2429 25.5123 26.0515 25.9151 25.7887 26.7978C25.4568 27.9136 25.1559 28.9523 25.0586 30.6349C24.981 31.9788 24.8837 33.6596 25.5341 35.6776C25.9902 37.0929 26.6063 38.0292 27.3847 38.665C28.1831 39.3181 28.744 39.3221 28.9468 39.3103C29.5117 39.2772 29.9024 38.9663 29.9995 38.8857C30.0965 38.8052 30.4478 38.4918 30.7125 37.4766C30.8374 36.9975 30.9737 36.2454 30.8993 35.2858L27.1123 35.2744C26.8599 35.2734 26.6182 35.1725 26.4401 34.9936C26.262 34.8147 26.162 34.5725 26.1622 34.3201C26.1622 34.0735 26.2577 33.8365 26.4286 33.6589C26.5996 33.4812 26.8327 33.3767 27.079 33.3672L29.6768 33.2667C30.2216 33.0448 30.7051 32.6955 31.0869 32.2481C31.9855 31.1862 31.9679 29.9445 31.9529 29.6164C30.4208 29.6108 28.2955 29.6054 26.764 29.6C26.5082 29.5995 26.263 29.4975 26.0823 29.3164C25.9016 29.1354 25.8001 28.89 25.8001 28.6342Z" fill="#127928"/>
<path d="M26.1104 41.1118C25.59 41.1262 25.0695 41.0878 24.5569 40.9972C24.0427 40.9067 23.0446 40.7191 21.972 40.0294C21.7288 39.873 20.9432 39.3445 20.2275 38.3741C19.4535 37.3239 19.1845 36.3319 19.0561 35.8393C18.7282 34.5824 18.7932 33.5725 18.8656 32.453C18.9167 31.6564 19.0274 30.8647 19.1968 30.0846C18.5017 29.8563 18.0838 29.4783 17.8852 29.2699C17.0663 28.4104 16.817 27.1477 17.134 26.1503C17.4599 25.1183 18.4418 24.3864 19.5277 24.3035C19.8174 24.2814 20.4558 24.242 21.0812 24.6347C21.7484 25.0535 21.9845 25.7018 22.0871 25.9843C22.3243 26.6361 22.2682 27.1859 22.2017 27.818C22.1742 28.085 22.1132 28.5172 21.7562 29.6771C21.3991 30.8369 21.2992 30.9253 21.0812 31.6506C20.8766 32.3301 20.598 33.2828 20.5842 34.5031C20.5773 35.1053 20.5757 36.0466 21.0042 37.1518C21.3539 38.0529 21.8224 38.6322 21.9466 38.7813C22.5396 39.4942 23.1617 39.8761 23.5001 40.08C24.1157 40.4506 24.6741 40.6483 25.1555 40.8185C25.5402 40.955 25.8701 41.0501 26.1104 41.1118ZM20.1384 25.7808C19.7944 25.4894 19.3447 25.5606 19.3237 25.5635C18.7181 25.669 18.4546 26.3614 18.4197 26.4675C18.1191 27.3894 18.5486 28.6074 18.9797 28.9641C19.0727 29.041 19.3807 29.2959 19.6677 29.2061C19.9 29.1337 20.0912 28.8044 20.1984 28.5122C20.5449 27.5658 20.7667 26.3138 20.1384 25.7808Z" fill="#127928"/>
</svg>
