<svg width="26" height="26" viewBox="0 0 26 26" fill="none" xmlns="http://www.w3.org/2000/svg">
<rect width="26" height="26" rx="4.72727" fill="#24163A"/>
<path fill-rule="evenodd" clip-rule="evenodd" d="M9.77796 3.54541C10.1742 3.54541 10.4955 3.86666 10.4955 4.26294V5.45881H16.4749C16.8711 5.45881 17.1924 5.78006 17.1924 6.17634C17.1924 6.57262 16.8711 6.89386 16.4749 6.89386H14.6062C13.8026 9.24204 12.3726 11.4421 10.7587 13.3917L13.1474 15.7064C13.432 15.9822 13.4391 16.4364 13.1633 16.721C12.8876 17.0056 12.4333 17.0127 12.1487 16.737L9.81852 14.4789C8.37337 16.0819 6.83344 17.5039 5.46141 18.6799C5.16053 18.9378 4.70755 18.9029 4.44966 18.6021C4.19177 18.3012 4.22662 17.8482 4.5275 17.5903C5.89473 16.4184 7.41392 15.0125 8.82407 13.4386C8.4122 12.9484 7.95811 12.3615 7.54838 11.801C6.99971 11.0504 6.4876 10.2887 6.26608 9.84568C6.08886 9.49123 6.23252 9.06024 6.58697 8.88302C6.94141 8.70579 7.37241 8.84946 7.54963 9.2039C7.71079 9.52623 8.15538 10.1996 8.70691 10.9541C9.05516 11.4305 9.42869 11.9157 9.77137 12.3331C11.1576 10.6373 12.3477 8.80038 13.0797 6.89386H3.08105C2.68477 6.89386 2.36353 6.57262 2.36353 6.17634C2.36353 5.78006 2.68477 5.45881 3.08105 5.45881H9.06043V4.26294C9.06043 3.86666 9.38168 3.54541 9.77796 3.54541Z" fill="#FFF8EA"/>
<path fill-rule="evenodd" clip-rule="evenodd" d="M17.9095 10.7207C18.2072 10.7207 18.474 10.9046 18.58 11.1828L21.3134 18.358L21.3134 18.3581L22.4068 21.2281C22.5479 21.5985 22.3621 22.013 21.9918 22.1541C21.6214 22.2952 21.2069 22.1093 21.0658 21.739L20.1484 19.331H15.6706L14.7532 21.739C14.6121 22.1093 14.1976 22.2952 13.8273 22.1541C13.4569 22.013 13.2711 21.5985 13.4122 21.2281L14.5056 18.3581L14.5056 18.358L17.239 11.1828C17.345 10.9046 17.6118 10.7207 17.9095 10.7207ZM16.2173 17.896H19.6017L17.9095 13.4538L16.2173 17.896Z" fill="#FFF8EA"/>
</svg>
