<svg xmlns="http://www.w3.org/2000/svg"  viewBox="0 0 80 80" width="80px" height="80px"><path d="M 24.832031 13.023438 L 28.96875 25.433594 L 28.96875 33.703125 L 31.726563 33.703125 L 31.726563 25.433594 L 35.863281 13.023438 L 33.105469 13.023438 L 30.347656 21.296875 L 27.589844 13.023438 Z M 40 18.535156 C 38.527344 18.535156 37.804688 18.769531 36.90625 19.503906 C 36.046875 20.238281 35.804688 20.796875 35.863281 22.675781 L 35.863281 29.566406 C 35.863281 30.941406 36.089844 31.847656 36.921875 32.652344 C 37.78125 33.449219 38.597656 33.703125 40 33.703125 C 41.46875 33.703125 42.273438 33.453125 43.101563 32.652344 C 43.964844 31.882813 44.140625 30.945313 44.140625 29.566406 L 44.140625 22.671875 C 44.136719 21.457031 43.921875 20.300781 43.089844 19.53125 C 42.226563 18.738281 41.339844 18.535156 40 18.535156 Z M 46.894531 18.539063 L 46.894531 30.949219 C 46.894531 32.289063 48.246094 33.707031 49.652344 33.707031 C 51.058594 33.707031 51.800781 33 52.410156 32.328125 L 52.410156 33.707031 L 55.167969 33.707031 L 55.167969 18.539063 L 52.410156 18.539063 L 52.410156 29.570313 C 52.394531 30.511719 51.285156 30.949219 51.03125 30.949219 C 50.746094 30.949219 49.652344 30.890625 49.652344 29.570313 L 49.652344 18.539063 Z M 40 21.296875 C 40.414063 21.296875 41.378906 21.292969 41.378906 22.675781 L 41.378906 29.566406 C 41.378906 30.90625 40.445313 30.949219 40 30.949219 C 39.585938 30.949219 38.621094 30.929688 38.621094 29.566406 L 38.621094 22.675781 C 38.621094 21.550781 39.21875 21.296875 40 21.296875 Z M 16 37 C 15.449219 37 15 37.449219 15 38 C 15 38.550781 15.449219 39 16 39 C 16.550781 39 17 38.550781 17 38 C 17 37.449219 16.550781 37 16 37 Z M 20 37 C 19.449219 37 19 37.449219 19 38 C 19 38.550781 19.449219 39 20 39 C 20.550781 39 21 38.550781 21 38 C 21 37.449219 20.550781 37 20 37 Z M 24 37 C 23.449219 37 23 37.449219 23 38 C 23 38.550781 23.449219 39 24 39 C 24.550781 39 25 38.550781 25 38 C 25 37.449219 24.550781 37 24 37 Z M 28 37 C 27.449219 37 27 37.449219 27 38 C 27 38.550781 27.449219 39 28 39 C 28.550781 39 29 38.550781 29 38 C 29 37.449219 28.550781 37 28 37 Z M 32 37 C 31.449219 37 31 37.449219 31 38 C 31 38.550781 31.449219 39 32 39 C 32.550781 39 33 38.550781 33 38 C 33 37.449219 32.550781 37 32 37 Z M 36 37 C 35.449219 37 35 37.449219 35 38 C 35 38.550781 35.449219 39 36 39 C 36.550781 39 37 38.550781 37 38 C 37 37.449219 36.550781 37 36 37 Z M 40 37 C 39.449219 37 39 37.449219 39 38 C 39 38.550781 39.449219 39 40 39 C 40.550781 39 41 38.550781 41 38 C 41 37.449219 40.550781 37 40 37 Z M 44 37 C 43.449219 37 43 37.449219 43 38 C 43 38.550781 43.449219 39 44 39 C 44.550781 39 45 38.550781 45 38 C 45 37.449219 44.550781 37 44 37 Z M 48 37 C 47.449219 37 47 37.449219 47 38 C 47 38.550781 47.449219 39 48 39 C 48.550781 39 49 38.550781 49 38 C 49 37.449219 48.550781 37 48 37 Z M 52 37 C 51.449219 37 51 37.449219 51 38 C 51 38.550781 51.449219 39 52 39 C 52.550781 39 53 38.550781 53 38 C 53 37.449219 52.550781 37 52 37 Z M 56 37 C 55.449219 37 55 37.449219 55 38 C 55 38.550781 55.449219 39 56 39 C 56.550781 39 57 38.550781 57 38 C 57 37.449219 56.550781 37 56 37 Z M 60 37 C 59.449219 37 59 37.449219 59 38 C 59 38.550781 59.449219 39 60 39 C 60.550781 39 61 38.550781 61 38 C 61 37.449219 60.550781 37 60 37 Z M 64 37 C 63.449219 37 63 37.449219 63 38 C 63 38.550781 63.449219 39 64 39 C 64.550781 39 65 38.550781 65 38 C 65 37.449219 64.550781 37 64 37 Z M 13 40 C 12.449219 40 12 40.449219 12 41 C 12 41.550781 12.449219 42 13 42 C 13.550781 42 14 41.550781 14 41 C 14 40.449219 13.550781 40 13 40 Z M 67 40 C 66.449219 40 66 40.449219 66 41 C 66 41.550781 66.449219 42 67 42 C 67.550781 42 68 41.550781 68 41 C 68 40.449219 67.550781 40 67 40 Z M 20.695313 42.980469 L 20.695313 45.734375 L 23.453125 45.734375 L 23.453125 62.28125 L 26.210938 62.28125 L 26.210938 45.734375 L 28.96875 45.734375 L 28.96875 42.980469 Z M 41.378906 42.980469 L 41.378906 62.28125 L 44.136719 62.28125 L 44.136719 60.902344 C 44.667969 61.523438 45.445313 62.296875 46.894531 62.28125 C 47.753906 62.273438 48.417969 61.582031 48.859375 61.042969 C 49.308594 60.492188 49.652344 59.859375 49.652344 58.835938 L 49.652344 50.5625 C 49.652344 49.371094 49.277344 48.566406 48.796875 47.957031 C 48.316406 47.347656 47.617188 47.03125 46.71875 47.03125 C 46.273438 47.03125 45.824219 47.15625 45.378906 47.386719 C 44.929688 47.609375 44.453125 48 44.136719 48.496094 L 44.136719 42.980469 Z M 12 44 C 11.449219 44 11 44.449219 11 45 C 11 45.550781 11.449219 46 12 46 C 12.550781 46 13 45.550781 13 45 C 13 44.449219 12.550781 44 12 44 Z M 68 44 C 67.449219 44 67 44.449219 67 45 C 67 45.550781 67.449219 46 68 46 C 68.550781 46 69 45.550781 69 45 C 69 44.449219 68.550781 44 68 44 Z M 30.347656 47.113281 L 30.347656 59.527344 C 30.347656 60.386719 30.71875 60.816406 31.035156 61.230469 C 31.390625 61.679688 32.148438 62.28125 32.816406 62.28125 C 33.359375 62.28125 33.9375 62.304688 34.515625 61.984375 C 35.085938 61.695313 35.351563 61.507813 35.863281 60.90625 L 35.863281 62.28125 L 38.621094 62.28125 L 38.621094 47.113281 L 35.863281 47.113281 L 35.863281 58.144531 C 35.613281 58.46875 35.605469 59.515625 34.484375 59.527344 C 33.476563 59.535156 33.105469 58.464844 33.105469 58.144531 L 33.105469 47.113281 Z M 55.4375 47.117188 C 54.132813 47.117188 52.917969 47.4375 52.277344 48.097656 C 51.472656 48.921875 51.035156 49.847656 51.035156 51.09375 L 51.035156 57.585938 C 51.035156 58.996094 51.417969 60.085938 52.148438 60.886719 C 52.886719 61.683594 53.910156 62.066406 55.21875 62.066406 C 56.652344 62.066406 57.742188 61.710938 58.441406 60.941406 C 59.183594 60.207031 59.304688 59.09375 59.304688 57.585938 L 59.304688 56.769531 L 56.546875 56.769531 L 56.546875 57.457031 C 56.546875 58.289063 56.464844 58.925781 56.269531 59.15625 C 56.082031 59.410156 55.726563 59.519531 55.167969 59.527344 C 54.660156 59.53125 54.277344 59.390625 54.089844 59.074219 C 53.894531 58.785156 53.789063 58.289063 53.789063 57.519531 L 53.789063 55.390625 L 59.304688 55.390625 L 59.304688 51.09375 C 59.304688 49.71875 59.074219 48.867188 58.363281 48.128906 C 57.667969 47.394531 56.75 47.117188 55.4375 47.117188 Z M 12 48 C 11.449219 48 11 48.449219 11 49 C 11 49.550781 11.449219 50 12 50 C 12.550781 50 13 49.550781 13 49 C 13 48.449219 12.550781 48 12 48 Z M 68 48 C 67.449219 48 67 48.449219 67 49 C 67 49.550781 67.449219 50 68 50 C 68.550781 50 69 49.550781 69 49 C 69 48.449219 68.550781 48 68 48 Z M 45.515625 49.183594 C 46.277344 49.183594 46.894531 49.871094 46.894531 51.25 L 46.894531 58.175781 C 46.894531 58.9375 46.277344 59.527344 45.515625 59.527344 C 44.753906 59.527344 44.148438 59.234375 44.136719 58.835938 L 44.136719 50.5625 C 44.148438 49.867188 44.753906 49.183594 45.515625 49.183594 Z M 55.167969 49.875 C 55.929688 49.875 56.546875 50.402344 56.546875 51.25 L 56.546875 52.628906 L 53.785156 52.628906 L 53.785156 51.25 C 53.800781 50.511719 54.40625 49.875 55.167969 49.875 Z M 12 52 C 11.449219 52 11 52.449219 11 53 C 11 53.550781 11.449219 54 12 54 C 12.550781 54 13 53.550781 13 53 C 13 52.449219 12.550781 52 12 52 Z M 68 52 C 67.449219 52 67 52.449219 67 53 C 67 53.550781 67.449219 54 68 54 C 68.550781 54 69 53.550781 69 53 C 69 52.449219 68.550781 52 68 52 Z M 12 56 C 11.449219 56 11 56.449219 11 57 C 11 57.550781 11.449219 58 12 58 C 12.550781 58 13 57.550781 13 57 C 13 56.449219 12.550781 56 12 56 Z M 68 56 C 67.449219 56 67 56.449219 67 57 C 67 57.550781 67.449219 58 68 58 C 68.550781 58 69 57.550781 69 57 C 69 56.449219 68.550781 56 68 56 Z M 12 60 C 11.449219 60 11 60.449219 11 61 C 11 61.550781 11.449219 62 12 62 C 12.550781 62 13 61.550781 13 61 C 13 60.449219 12.550781 60 12 60 Z M 68 60 C 67.449219 60 67 60.449219 67 61 C 67 61.550781 67.449219 62 68 62 C 68.550781 62 69 61.550781 69 61 C 69 60.449219 68.550781 60 68 60 Z M 13 64 C 12.449219 64 12 64.449219 12 65 C 12 65.550781 12.449219 66 13 66 C 13.550781 66 14 65.550781 14 65 C 14 64.449219 13.550781 64 13 64 Z M 67 64 C 66.449219 64 66 64.449219 66 65 C 66 65.550781 66.449219 66 67 66 C 67.550781 66 68 65.550781 68 65 C 68 64.449219 67.550781 64 67 64 Z M 16 67 C 15.449219 67 15 67.449219 15 68 C 15 68.550781 15.449219 69 16 69 C 16.550781 69 17 68.550781 17 68 C 17 67.449219 16.550781 67 16 67 Z M 20 67 C 19.449219 67 19 67.449219 19 68 C 19 68.550781 19.449219 69 20 69 C 20.550781 69 21 68.550781 21 68 C 21 67.449219 20.550781 67 20 67 Z M 24 67 C 23.449219 67 23 67.449219 23 68 C 23 68.550781 23.449219 69 24 69 C 24.550781 69 25 68.550781 25 68 C 25 67.449219 24.550781 67 24 67 Z M 28 67 C 27.449219 67 27 67.449219 27 68 C 27 68.550781 27.449219 69 28 69 C 28.550781 69 29 68.550781 29 68 C 29 67.449219 28.550781 67 28 67 Z M 32 67 C 31.449219 67 31 67.449219 31 68 C 31 68.550781 31.449219 69 32 69 C 32.550781 69 33 68.550781 33 68 C 33 67.449219 32.550781 67 32 67 Z M 36 67 C 35.449219 67 35 67.449219 35 68 C 35 68.550781 35.449219 69 36 69 C 36.550781 69 37 68.550781 37 68 C 37 67.449219 36.550781 67 36 67 Z M 40 67 C 39.449219 67 39 67.449219 39 68 C 39 68.550781 39.449219 69 40 69 C 40.550781 69 41 68.550781 41 68 C 41 67.449219 40.550781 67 40 67 Z M 44 67 C 43.449219 67 43 67.449219 43 68 C 43 68.550781 43.449219 69 44 69 C 44.550781 69 45 68.550781 45 68 C 45 67.449219 44.550781 67 44 67 Z M 48 67 C 47.449219 67 47 67.449219 47 68 C 47 68.550781 47.449219 69 48 69 C 48.550781 69 49 68.550781 49 68 C 49 67.449219 48.550781 67 48 67 Z M 52 67 C 51.449219 67 51 67.449219 51 68 C 51 68.550781 51.449219 69 52 69 C 52.550781 69 53 68.550781 53 68 C 53 67.449219 52.550781 67 52 67 Z M 56 67 C 55.449219 67 55 67.449219 55 68 C 55 68.550781 55.449219 69 56 69 C 56.550781 69 57 68.550781 57 68 C 57 67.449219 56.550781 67 56 67 Z M 60 67 C 59.449219 67 59 67.449219 59 68 C 59 68.550781 59.449219 69 60 69 C 60.550781 69 61 68.550781 61 68 C 61 67.449219 60.550781 67 60 67 Z M 64 67 C 63.449219 67 63 67.449219 63 68 C 63 68.550781 63.449219 69 64 69 C 64.550781 69 65 68.550781 65 68 C 65 67.449219 64.550781 67 64 67 Z"/></svg>